<?xml version="1.0" encoding="utf-8"?>
<!-- Generator: Adobe Illustrator 24.1.2, SVG Export Plug-In . SVG Version: 6.00 Build 0)  -->
<svg version="1.1" id="Layer_1" xmlns="http://www.w3.org/2000/svg" xmlns:xlink="http://www.w3.org/1999/xlink" x="0px" y="0px"
	 viewBox="0 0 48 48" style="enable-background:new 0 0 48 48;" xml:space="preserve">
<style type="text/css">
	.st0{opacity:0.3;fill-rule:evenodd;clip-rule:evenodd;fill:#FFFFFF;enable-background:new    ;}
	.st1{fill:#FFFFFF;}
</style>
<g id="_x39_.-Icon_x2F_Fares_x2F_Basic">
	<g id="Fares-Economy-Basic">
		<circle id="Oval" class="st0" cx="24" cy="24" r="24"/>
		<path id="Combined-Shape" class="st1" d="M18.8,18.5c-0.8-0.8-0.8-2.1,0-2.9c0.8-0.8,2-0.8,2.8,0c0.8,0.8,0.8,2.1,0,2.9
			C20.8,19.3,19.6,19.3,18.8,18.5z M17.7,28.2v-7c0-0.5-0.4-0.9-0.8-0.9c-0.5,0-0.8,0.4-0.8,0.9v7c0,2.4,1.9,4.4,4.2,4.4h4.2
			c0.5,0,0.8-0.4,0.8-0.9s-0.4-0.9-0.8-0.9h-4.2C18.8,30.9,17.7,29.7,17.7,28.2z M20.4,20.4c0.3,0,0.8,0.1,1,0.2
			c0.2,0.1,0.4,0.3,0.6,0.4c0.3,0.4,0.5,1.4,0.5,3.1l0,0V27h2.7c0.1,0,0.3,0,0.4,0c0.4,0,0.7,0.1,0.9,0.4c0,0,0.1,0.1,0.1,0.1
			l1.7,3.2c0.3,0.6,0.1,1.4-0.5,1.7c-0.5,0.3-1.3,0.2-1.6-0.4c0,0,0,0,0-0.1L25.1,30L21,30c-1.3,0-2.4-1.1-2.5-2.5l0-0.2v-5
			C18.5,21.2,19.4,20.4,20.4,20.4L20.4,20.4L20.4,20.4z"/>
		<g id="_x30_9-Icon_x2F_-Lock-_x2F_-Fill">
			<path id="path-1_1_" class="st1" d="M32.8,18.3H32v-2.1c0-0.7-0.5-1.3-1.2-1.3h-1.6c-0.7,0-1.2,0.5-1.2,1.3v2.1h-0.8
				c-0.2,0-0.4,0.2-0.4,0.4v4.2c0,0.3,0.2,0.4,0.4,0.4h5.7c0.2,0,0.4-0.2,0.4-0.4v-4.2C33.2,18.5,33.1,18.3,32.8,18.3z M28.7,16.2
				c0-0.3,0.2-0.4,0.4-0.4h1.6c0.2,0,0.4,0.2,0.4,0.4v2.1h-2.5V16.2z"/>
		</g>
	</g>
</g>
</svg>
