<?xml version="1.0" encoding="utf-8"?>
<!-- Generator: Adobe Illustrator 24.1.2, SVG Export Plug-In . SVG Version: 6.00 Build 0)  -->
<svg version="1.1" id="Layer_1" xmlns="http://www.w3.org/2000/svg" xmlns:xlink="http://www.w3.org/1999/xlink" x="0px" y="0px"
	 viewBox="0 0 48 48" style="enable-background:new 0 0 48 48;" xml:space="preserve">
<style type="text/css">
	.st0{opacity:0.3;fill-rule:evenodd;clip-rule:evenodd;fill:#FFFFFF;enable-background:new    ;}
	.st1{fill:#FFFFFF;}
	.st2{fill-rule:evenodd;clip-rule:evenodd;fill:#FFFFFF;}
</style>
<g id="_x39_.-Icon_x2F_Fares_x2F_BusinessFull">
	<g id="Fares-Ejecutiva-Full">
		<circle id="Oval-Copy-5" class="st0" cx="24" cy="24" r="24"/>
		<path id="Shape" class="st1" d="M16.4,18.6c-0.8-0.8-0.8-2.2,0-3c0.8-0.8,2.2-0.8,3.1,0c0.8,0.8,0.8,2.2,0,3
			C18.6,19.4,17.2,19.4,16.4,18.6z M17.4,28.3l-1.7-6.9c-0.1-0.5-0.6-1-1-0.9c-0.5,0.1-0.9,0.4-0.8,0.9l1.8,6.9
			c1.1,3.6,2.1,4.5,4.6,4.5h4.6c0.5,0,0.9-0.4,0.9-0.9c0-0.5-0.4-0.9-0.9-0.9h-4.6C18.8,31,18,30.3,17.4,28.3z M18.4,20.3
			c1.3-0.3,1.6,0.3,1.8,0.5c0.2,0.5,0.6,1.6,1.1,3.4l0,0l0.9,2.9h3.6c0.2,0,0.3,0,0.5,0.1c0.4,0,0.8,0.2,1,0.5c0,0,0,0.1,0.1,0.1
			l1.8,3.2c0.4,0.6,0.1,1.5-0.5,1.8c-0.6,0.4-1.4,0.2-1.8-0.5c0,0,0,0,0,0l-1.2-2.2l-0.1,0l-4.6,0c-1.5,0-2.1-0.9-2.8-2.7l0,0
			L17,22.3C16.7,21.1,17.1,20.6,18.4,20.3z"/>
		<polygon id="Star-Copy-17" class="st2" points="30.6,20 29.6,23.2 28.7,20 25.4,19 28.7,18 29.6,14.8 30.6,18 33.9,19 		"/>
		<polygon id="Star-Copy-23" class="st2" points="34.6,15.6 34.1,17.3 33.6,15.6 32,15.2 33.6,14.7 34.1,13.1 34.6,14.7 36.2,15.2 
					"/>
	</g>
</g>
</svg>
