<?xml version="1.0" encoding="utf-8"?>
<!-- Generator: Adobe Illustrator 24.1.2, SVG Export Plug-In . SVG Version: 6.00 Build 0)  -->
<svg version="1.1" id="Layer_1" xmlns="http://www.w3.org/2000/svg" xmlns:xlink="http://www.w3.org/1999/xlink" x="0px" y="0px"
	 viewBox="0 0 48 48" style="enable-background:new 0 0 48 48;" xml:space="preserve">
<style type="text/css">
	.st0{opacity:0.3;fill-rule:evenodd;clip-rule:evenodd;fill:#FFFFFF;enable-background:new    ;}
	.st1{fill:#FFFFFF;}
</style>
<g id="_x39_.-Icon_x2F_Fares_x2F_Special-Fare_1_">
	<g id="Fares-Economy-Promo_1_">
		<circle id="Oval-Copy_1_" class="st0" cx="24" cy="24" r="24"/>
		<path id="Combined-Shape-Copy_1_" class="st1" d="M18.8,18.5c-0.8-0.8-0.8-2.1,0-3s2.1-0.8,2.8,0s0.8,2.1,0,3
			C20.9,19.3,19.6,19.3,18.8,18.5z M17.7,28.4v-7.1c0-0.5-0.4-0.9-0.8-0.9S16,20.8,16,21.3v7.1c0,2.4,1.9,4.4,4.2,4.4h4.2
			c0.5,0,0.8-0.4,0.8-0.9c0-0.5-0.4-0.9-0.8-0.9h-4.2C18.8,31.1,17.7,29.9,17.7,28.4z M20.5,20.4c0.3,0,0.8,0.1,1.1,0.2
			c0.2,0.1,0.4,0.3,0.6,0.4c0.3,0.4,0.5,1.4,0.5,3.2l0,0v2.9h2.7c0.1,0,0.3,0,0.4,0c0.4,0,0.7,0.1,0.9,0.4c0,0,0.1,0.1,0.1,0.1
			l1.7,3.2c0.3,0.6,0.1,1.4-0.5,1.8c-0.5,0.3-1.3,0.2-1.6-0.4c0,0,0,0,0-0.1l-1.1-2.1l-4.1,0c-1.4,0-2.5-1.1-2.5-2.5l0-0.2v-5.1
			C18.5,21.3,19.4,20.4,20.5,20.4L20.5,20.4L20.5,20.4z"/>
		<path id="Path_1_" class="st1" d="M31.4,18.2h-1.1l1.3-3.1c0-0.1,0-0.2-0.1-0.2c0,0,0,0-0.1,0h-3.4c-0.1,0-0.2,0.1-0.2,0.2
			c0,0,0,0,0,0l0.3,4.8c0,0.1,0.1,0.2,0.2,0.2h0.5l0.3,3.5c0,0.1,0.1,0.2,0.2,0.2c0.1,0,0.1,0,0.1-0.1l2.1-5.2
			C31.5,18.4,31.5,18.3,31.4,18.2C31.4,18.3,31.4,18.2,31.4,18.2z"/>
	</g>
</g>
</svg>
